<?xml version="1.0" standalone="no"?>
<!DOCTYPE svg PUBLIC "-//W3C//DTD SVG 20010904//EN"
 "http://www.w3.org/TR/2001/REC-SVG-20010904/DTD/svg10.dtd">
<svg version="1.0" xmlns="http://www.w3.org/2000/svg"
 width="512.000000pt" height="512.000000pt" viewBox="0 0 512.000000 512.000000"
 preserveAspectRatio="xMidYMid meet">

<g transform="translate(0.000000,512.000000) scale(0.100000,-0.100000)"
fill="#000000" stroke="none">
<path d="M1335 4809 c-784 -108 -1370 -809 -1332 -1594 16 -338 132 -642 346
-907 79 -99 2077 -1966 2129 -1990 47 -22 117 -22 164 0 21 9 251 217 517 465
405 377 481 453 487 481 12 68 -52 132 -119 119 -19 -4 -176 -144 -497 -444
l-469 -439 -978 913 c-538 502 -1006 943 -1039 979 -111 119 -205 277 -263
441 -54 153 -74 273 -74 442 -1 237 41 416 145 617 187 364 524 617 938 705
118 24 381 25 500 0 252 -53 473 -164 658 -331 63 -57 78 -66 111 -66 33 0 48
9 112 66 148 131 326 234 495 287 157 50 238 62 414 62 241 0 400 -39 614
-148 651 -332 910 -1136 577 -1790 -94 -185 -162 -264 -473 -554 -101 -94
-181 -176 -186 -192 -31 -88 72 -167 148 -114 60 41 458 424 516 497 207 258
323 563 340 896 22 422 -131 827 -430 1138 -285 296 -642 455 -1056 469 -364
13 -689 -89 -981 -309 l-90 -67 -62 48 c-192 150 -406 250 -649 302 -108 24
-399 34 -513 18z"/>
<path d="M2025 3986 c-61 -30 -81 -48 -128 -109 -109 -143 -100 -384 20 -517
63 -71 119 -101 197 -107 122 -10 229 54 294 175 103 192 40 446 -136 549 -67
40 -178 43 -247 9z m154 -191 c99 -50 96 -277 -4 -331 -32 -17 -36 -17 -69 -1
-100 47 -109 264 -14 331 28 20 51 20 87 1z"/>
<path d="M2898 4000 c-110 -33 -206 -157 -230 -300 -29 -170 52 -350 189 -420
39 -20 63 -25 128 -25 69 0 86 4 126 27 64 38 134 118 161 186 32 82 32 242
-1 324 -29 75 -110 164 -176 195 -52 24 -141 30 -197 13z m130 -206 c95 -67
86 -284 -14 -331 -33 -16 -37 -16 -69 1 -48 26 -77 89 -77 166 0 127 86 216
160 164z"/>
<path d="M1363 3466 c-86 -28 -152 -85 -194 -169 -131 -256 20 -580 271 -580
292 0 429 425 214 663 -70 78 -200 116 -291 86z m143 -230 c68 -71 67 -209 0
-281 -46 -48 -86 -48 -132 0 -64 69 -68 204 -6 277 48 56 87 58 138 4z"/>
<path d="M3603 3466 c-86 -28 -152 -85 -194 -169 -131 -256 20 -580 271 -580
292 0 429 425 214 663 -70 78 -200 116 -291 86z m143 -230 c67 -70 67 -210 0
-281 -46 -48 -86 -48 -132 0 -64 69 -68 204 -6 277 48 56 87 58 138 4z"/>
<path d="M2461 3120 c-130 -18 -262 -70 -364 -143 -70 -50 -393 -353 -439
-411 -191 -241 -181 -600 23 -829 210 -236 558 -291 822 -131 l57 35 58 -35
c181 -111 423 -120 616 -25 364 181 477 627 244 967 -38 54 -385 382 -461 434
-160 109 -374 162 -556 138z m298 -233 c104 -37 157 -75 343 -249 187 -175
222 -214 254 -282 77 -166 46 -358 -82 -495 -95 -102 -212 -148 -360 -138 -96
6 -179 39 -254 102 -81 68 -116 69 -195 4 -91 -75 -182 -109 -297 -109 -125 0
-240 51 -326 145 -95 104 -137 240 -113 372 14 79 45 152 87 203 50 61 364
350 418 385 113 72 203 96 346 91 82 -2 121 -9 179 -29z"/>
<path d="M3809 1662 c-52 -46 -40 -125 23 -158 71 -37 160 29 143 106 -17 78
-106 106 -166 52z"/>
</g>
</svg>
